<svg id="Layer_1" data-name="Layer 1" xmlns="http://www.w3.org/2000/svg" viewBox="0 0 65.91 74.1"><defs><style>.cls-1{fill:#df2f54;}.cls-2{fill:#2cb0ba;}.cls-3{fill:#21afb9;}.cls-4{fill:#fff;}</style></defs><path class="cls-1" d="M54.29,16.4A17.51,17.51,0,0,1,50,5H46.55A16,16,0,0,0,54.29,16.4Z" transform="translate(-1.36 -2.02)"/><path class="cls-1" d="M24,40.32a10.15,10.15,0,0,0-4.25,19.37,10.15,10.15,0,0,1,8-16.37,10,10,0,0,1,3.12.49V31.11a22.92,22.92,0,0,0-3.12-.21h-.65v9.9A10,10,0,0,0,24,40.32Z" transform="translate(-1.36 -2.02)"/><path class="cls-1" d="M63.5,21.42v10S56,32.48,46.43,26V37.55c0,7.82,1,15.94-2.6,23.18A22.15,22.15,0,0,1,24,73.12a22.52,22.52,0,0,1-12.1-3.51,22.56,22.56,0,0,0,15.87,6.51A22.16,22.16,0,0,0,47.6,63.73c3.62-7.24,2.6-15.36,2.6-23.18V29c9.53,6.46,17.07,5.38,17.07,5.38V21.94A26,26,0,0,1,63.5,21.42Z" transform="translate(-1.36 -2.02)"/><path class="cls-2" d="M63.5,21.42V18.94a21.48,21.48,0,0,1-9.21-2.54A16.87,16.87,0,0,0,63.5,21.42Z" transform="translate(-1.36 -2.02)"/><path class="cls-3" d="M5.13,53.51a22.61,22.61,0,0,1,22-22.6V28.12A21.42,21.42,0,0,0,24,27.9a22.61,22.61,0,0,0-12.1,41.71A22.54,22.54,0,0,1,5.13,53.51Z" transform="translate(-1.36 -2.02)"/><path class="cls-3" d="M27.74,63.62A10.12,10.12,0,0,0,37.79,54c.52-6.87.26-13.76.26-20.63V5h8.5a15.22,15.22,0,0,1-.27-3h-12V30.37c0,6.87.26,13.76-.26,20.63a10.08,10.08,0,0,1-14.3,8.69A10.14,10.14,0,0,0,27.74,63.62Z" transform="translate(-1.36 -2.02)"/><path class="cls-4" d="M43.83,60.73c3.62-7.24,2.6-15.36,2.6-23.18V26C56,32.48,63.5,31.4,63.5,31.4v-10a16.87,16.87,0,0,1-9.21-5A16,16,0,0,1,46.55,5h-8.5V33.37c0,6.87.26,13.76-.26,20.63a10.09,10.09,0,0,1-18.07,5.69A10.15,10.15,0,0,1,24,40.32a10,10,0,0,1,3.12.49v-9.9a22.61,22.61,0,0,0-15.22,38.7A22.52,22.52,0,0,0,24,73.12,22.15,22.15,0,0,0,43.83,60.73Z" transform="translate(-1.36 -2.02)"/></svg>